inDegrees=no
num_controls=7
num_derivatives=13
num_iterations=97
num_multipliers=7
num_parameters=0
num_slacks=7
num_states=26
objective=0.453468
objective_accelerations=0.045753
objective_balance=0.000830
objective_effort=0.037454
objective_height=0.363254
objective_ligament=0.006177
solver_duration=1094.916145
status=Solve_Succeeded
success=true
DataType=double
version=3
OpenSimVersion=4.5
endheader
time	/jointset/ground_pelvis/pelvis_tilt/value	/jointset/ground_pelvis/pelvis_tx/value	/jointset/ground_pelvis/pelvis_ty/value	/jointset/hip_r/hip_flexion_r/value	/jointset/hip_r/hip_adduction_r/value	/jointset/hip_r/hip_rotation_r/value	/jointset/back/lumbar_extension/value	/jointset/patellofemoral_r/patellar_flexion_r/value	/jointset/knee_r/knee_flexion_r/value	/jointset/knee_r/knee_adduction_r/value	/jointset/knee_r/knee_rotation_r/value	/jointset/ankle_r/ankle_angle_r/value	/jointset/subtalar_r/subtalar_angle_r/value	/jointset/ground_pelvis/pelvis_tilt/speed	/jointset/ground_pelvis/pelvis_tx/speed	/jointset/ground_pelvis/pelvis_ty/speed	/jointset/hip_r/hip_flexion_r/speed	/jointset/hip_r/hip_adduction_r/speed	/jointset/hip_r/hip_rotation_r/speed	/jointset/back/lumbar_extension/speed	/jointset/patellofemoral_r/patellar_flexion_r/speed	/jointset/knee_r/knee_flexion_r/speed	/jointset/knee_r/knee_adduction_r/speed	/jointset/knee_r/knee_rotation_r/speed	/jointset/ankle_r/ankle_angle_r/speed	/jointset/subtalar_r/subtalar_angle_r/speed	/forceset/tau_hip_flexion_r	/forceset/tau_hip_adduction_r	/forceset/tau_hip_rotation_r	/forceset/tau_knee_flexion_r	/forceset/tau_ankle_angle_r	/forceset/tau_subtalar_angle_r	/forceset/tau_lumbar_extension	lambda_cid13_p0	lambda_cid14_p0	lambda_cid14_p1	lambda_cid14_p2	lambda_cid14_p3	lambda_cid14_p4	lambda_cid14_p5	/jointset/ground_pelvis/pelvis_tilt/accel	/jointset/ground_pelvis/pelvis_tx/accel	/jointset/ground_pelvis/pelvis_ty/accel	/jointset/hip_r/hip_flexion_r/accel	/jointset/hip_r/hip_adduction_r/accel	/jointset/hip_r/hip_rotation_r/accel	/jointset/back/lumbar_extension/accel	/jointset/patellofemoral_r/patellar_flexion_r/accel	/jointset/knee_r/knee_flexion_r/accel	/jointset/knee_r/knee_adduction_r/accel	/jointset/knee_r/knee_rotation_r/accel	/jointset/ankle_r/ankle_angle_r/accel	/jointset/subtalar_r/subtalar_angle_r/accel	gamma_cid13_p0	gamma_cid14_p0	gamma_cid14_p1	gamma_cid14_p2	gamma_cid14_p3	gamma_cid14_p4	gamma_cid14_p5
1.5	-0.07034895048431818	0.03794543182981722	0.8198974614368343	0.7838314489737765	-0.252229707020736	-0.05524745965125358	-0.6279371506058096	0.9399270393471371	0.9399270393471199	0.06380555247074943	0.1733033468769792	0.3019361911098847	0.0947893360981087	0.4303566470489946	0.21379202994147	0.4873772724776206	-1.938591120394369	0.03354443754674419	-0.5086834081752456	0.7947080371249413	-1.945703728980086	-1.945703728980094	0.1082355307526904	0.00666633375519482	-0.5193677183373553	-0.1187073229866983	-0.1524725561117168	-0.005312350058790688	0.0360127075661914	-0.3139264051863717	0.01385105269359679	-0.01400945635278754	0.2096050965693974	-8.71456986577879	-38.4090226366425	-11.69447711692418	1.012787535976673	-2.920077059672236	-634.1497665742004	62.69512465157136	0.04729844029898675	0.5416549032852613	-0.4565636981335203	-0.9489440251132459	0.1768171116982986	-0.1275451455978536	1.82195505521202	-1.439399013486333	-1.439399013486332	0.5860416301873863	0.003808923275284388	-0.6042815530364152	0.1508193164866596	1.064163020837537e-07	2.112752686557781e-08	-1.587051571507169e-06	2.878403405665423e-07	1.491123471506616e-07	2.036456498137618e-07	-1.067220085848414e-06
1.51	-0.06604328705464642	0.040110201421844	0.8247473936440443	0.7644001559430018	-0.251886043107293	-0.06034078795527329	-0.6199005258963725	0.9204005660578821	0.920400566057864	0.06491801062482663	0.1733714549454566	0.296712870518353	0.09360899705917172	0.4307156133666329	0.2191348353187496	0.4825031005432489	-1.947400397065162	0.03517893422359388	-0.5099303925085024	0.8124965757130189	-1.959306925828169	-1.959306925828183	0.114271664468611	0.006947817120756659	-0.5252127534240737	-0.1173515654121868	-0.145503874014859	-0.006760603619222692	0.0352761748011717	-0.3098116266270273	0.01559517892515355	-0.01443279827233519	0.2030994218660132	-9.747519904952759	-37.56591144264765	-11.6026123545648	0.8518215724213221	-3.03449892481945	-629.3803955229178	62.44598467605771	0.02113463056383156	0.5265544949817853	-0.5187129674802599	-0.8068514754286814	0.1553348610844874	-0.1153418647616588	1.739253903457556	-1.278201086435912	-1.27820108643678	0.6145694986120871	0.03925176142473733	-0.5620317184186562	0.1291547334128767	1.072060207556877e-07	3.76561240319584e-08	-1.335150117989409e-06	3.910864926625723e-07	1.137683220071257e-07	2.053209504978895e-07	-9.016322693044377e-07
1.52	-0.06173584618117474	0.04232759129565008	0.8295454103266323	0.7448887837480547	-0.2515263204440066	-0.06544499946013865	-0.6116896256724809	0.9007465765869413	0.900746576586935	0.06609126416730135	0.1734421645912408	0.2914336161295698	0.09244245574707474	0.4307121358069552	0.2243160862973281	0.4769941675532147	-1.954606953230614	0.03675618751670013	-0.5108600483446434	0.829563140015164	-1.971206965314911	-1.97120696531493	0.1203946084372493	0.007186649215442212	-0.5305544777879564	-0.1159477776185006	-0.1385351919179865	-0.00820885717967882	0.03453964203621832	-0.3056968480676799	0.01733930515670127	-0.01485614019192443	0.1965937471626495	-10.78877646248889	-36.72391725868885	-11.50833492242333	0.6874912589655534	-3.159206360727076	-624.623841519519	62.23937717110288	-0.02519033516409843	0.5093440235449307	-0.5835159092660059	-0.6283999240448915	0.1653684349496086	-0.06407944617473424	1.677560198025619	-1.098767541217785	-1.098767541217788	0.6034036807308478	-0.004721330900011463	-0.5036194084694494	0.1604253603216071	1.112900354544342e-07	5.070219622602036e-08	-1.201938882034088e-06	4.768471985169876e-07	9.258530593992042e-08	2.13214506010309e-07	-8.190223033509999e-07
1.53	-0.05743028809789814	0.04459591609967183	0.8342852244936506	0.7253134412640686	-0.2511510895584176	-0.07055701123482769	-0.6033118208487732	0.8809821720307101	0.8809821720307034	0.06732603535965687	0.1735150030131685	0.2861034942934519	0.09129024372694665	0.4303359356821415	0.2293143960326318	0.4708686715635655	-1.960182722915114	0.03828613147702346	-0.5115125625164272	0.8458602423238119	-1.981379024918561	-1.981379024918561	0.1265406834401137	0.007376498060089727	-0.5353802563410652	-0.1144756476372924	-0.1315102171973291	-0.00973498341394387	0.03378346494161622	-0.301768785528534	0.01913052016571105	-0.01534393737749316	0.1900306220380935	-11.83115573744916	-35.8873254467547	-11.44772710990273	0.5339329779892243	-3.237670771312214	-620.0806296114597	62.02066030096784	-0.05336209243529528	0.4899193095574644	-0.6420184912960558	-0.4803352479741173	0.146225486504465	-0.06120696878839643	1.585147887199501	-0.9322116048387598	-0.9322116048359267	0.6172075960223791	0.03023941879534641	-0.4585768377390282	0.1433346975600804	1.188742396816692e-07	6.004808563699384e-08	-1.194836002238856e-06	5.440296177396876e-07	8.644836201631623e-08	2.277149572777885e-07	-8.245763036500086e-07
1.54	-0.05313039746411972	0.04691319297325352	0.838960793291276	0.7056907071317822	-0.2507606756112477	-0.07567462206445096	-0.5947751724739928	0.8611248895914577	0.8611248895914558	0.06862166693923538	0.1735896202088674	0.280727810720002	0.09015329858273759	0.4295786459054953	0.234106500209313	0.464145093674653	-1.964085282892485	0.03979279983458069	-0.5119798593325363	0.8613318502290538	-1.98978254191821	-1.98978254191819	0.1325666858813111	0.007542403970665964	-0.5396668252544714	-0.1128944024345025	-0.1244852424766449	-0.01126110964821399	0.03302728784698086	-0.2978407229893815	0.02092173517471983	-0.01583173456306898	0.183467496913564	-12.87124049061904	-35.05225115821059	-11.38496301376517	0.3772639175950554	-3.324633240094589	-615.556054030353	61.84816609747346	-0.1014082655304367	0.4681029118202957	-0.7031322891186694	-0.2937579826191872	0.1607133143963988	-0.02703597503976064	1.512461317344543	-0.74505902041744	-0.7450590204174397	0.5793891683973793	-0.009509917714307493	-0.3957774805290966	0.1822484046379253	1.267191249348818e-07	6.866144127302337e-08	-1.202529421178926e-06	6.0749938870283e-07	8.21527043892359e-08	2.428545845088133e-07	-8.403102477251611e-07
